<?xml version="1.0" encoding="UTF-8"?>
<svg width="57px" height="52px" viewBox="0 0 57 52" version="1.1" xmlns="http://www.w3.org/2000/svg" xmlns:xlink="http://www.w3.org/1999/xlink">
    <!-- Generator: Sketch 42 (36781) - http://www.bohemiancoding.com/sketch -->
    <title>icon_custom_propeller</title>
    <desc>Created with Sketch.</desc>
    <defs></defs>
    <g id="Page-1" stroke="none" stroke-width="1" fill="none" fill-rule="evenodd">
        <g id="icon_custom_propeller" fill="#0372BC">
            <path d="M28.933,28.143 C30.382,28.143 31.557,29.317 31.557,30.766 C31.557,31.31 31.392,31.814 31.109,32.233 C30.92,32.512 30.679,32.753 30.4,32.942 C29.981,33.225 29.477,33.39 28.933,33.39 C28.39,33.39 27.885,33.225 27.466,32.942 C27.187,32.753 26.946,32.512 26.758,32.233 C26.475,31.814 26.31,31.31 26.31,30.766 C26.31,29.317 27.484,28.143 28.933,28.143 Z M28.933,36.703 C32.212,36.703 34.87,34.045 34.87,30.766 C34.87,27.487 32.212,24.829 28.933,24.829 C25.654,24.829 22.996,27.487 22.996,30.766 C22.996,34.045 25.654,36.703 28.933,36.703 L28.933,36.703 Z" id="Fill-60"></path>
            <path d="M17.037,50.022 C17.701,49.639 18.308,49.193 18.855,48.698 C21.634,46.225 23.565,42.272 24.906,38.1 C22.32,36.677 20.567,33.926 20.567,30.766 C20.567,30.678 20.571,30.591 20.574,30.503 C16.271,29.568 11.856,29.255 8.309,30.43 C7.606,30.657 6.917,30.959 6.252,31.343 C1.133,34.299 -0.602,40.876 2.376,46.034 C5.354,51.192 11.918,52.978 17.037,50.022" id="Fill-61"></path>
            <path d="M33.523,23.772 C36.378,20.581 38.745,17.014 39.48,13.453 C39.635,12.731 39.718,11.983 39.718,11.215 C39.718,5.304 34.889,0.512 28.933,0.512 C22.977,0.512 18.149,5.304 18.149,11.215 C18.149,11.983 18.232,12.731 18.387,13.453 C19.122,17.013 21.488,20.581 24.343,23.773 C25.661,22.906 27.238,22.4 28.933,22.4 C30.629,22.4 32.205,22.906 33.523,23.772" id="Fill-62"></path>
            <path d="M37.292,30.469 C37.295,30.568 37.299,30.667 37.299,30.766 C37.299,33.982 35.484,36.772 32.824,38.172 C34.164,42.318 36.089,46.24 38.851,48.698 C39.398,49.193 40.005,49.639 40.67,50.022 C45.789,52.978 52.353,51.192 55.331,46.034 C58.309,40.876 56.573,34.299 51.454,31.343 C50.789,30.959 50.1,30.657 49.397,30.43 C45.894,29.269 41.544,29.561 37.292,30.469" id="Fill-63"></path>
        </g>
    </g>
</svg>