<?xml version="1.0" encoding="UTF-8"?>
<svg width="54px" height="51px" viewBox="0 0 54 51" version="1.1" xmlns="http://www.w3.org/2000/svg" xmlns:xlink="http://www.w3.org/1999/xlink">
    <!-- Generator: Sketch 42 (36781) - http://www.bohemiancoding.com/sketch -->
    <title>icon_custom_sy</title>
    <desc>Created with Sketch.</desc>
    <defs></defs>
    <g id="Page-1" stroke="none" stroke-width="1" fill="none" fill-rule="evenodd">
        <g id="icon_custom_sy" transform="translate(-1.000000, 0.000000)" fill="#0372BC">
            <polyline id="Fill-36" points="27.614 0.252 27.614 39.655 46.766 39.655 27.614 0.252"></polyline>
            <polyline id="Fill-37" points="24.985 39.655 24.985 10.24 10.688 39.655 24.985 39.655"></polyline>
            <path d="M33.967,46.828 C34.538,48.518 36.03,49.763 37.855,49.975 C37.855,49.978 37.852,49.998 37.852,49.998 C37.954,50.006 38.061,50.002 38.165,50.007 C38.244,50.011 38.318,50.03 38.398,50.03 C38.443,50.03 38.484,50.018 38.529,50.017 C43.344,50.04 49.384,46.32 49.384,46.32 L49.369,46.317 C49.539,46.215 49.712,46.122 49.879,46.017 L54.899,42.865 L10.907,42.865 C8.4,42.865 6.024,43.769 4.144,45.334 L4.13,45.334 C3.1,46.095 1.724,47.877 0.995,49.2 C1.752,49.722 2.666,50.03 3.655,50.03 C5.715,50.03 7.446,48.695 8.079,46.849 C8.681,48.695 10.331,50.03 12.294,50.03 C14.233,50.03 15.868,48.728 16.489,46.917 C17.086,48.691 18.643,49.975 20.516,50.094 C20.515,50.1 20.516,50.107 20.514,50.114 C20.554,50.115 20.592,50.123 20.632,50.123 C20.659,50.123 20.685,50.115 20.713,50.115 C20.74,50.115 20.765,50.123 20.792,50.123 C22.81,50.123 24.504,48.749 25.114,46.853 C25.748,48.697 27.478,50.03 29.537,50.03 C31.605,50.03 33.341,48.685 33.967,46.828" id="Fill-38"></path>
        </g>
    </g>
</svg>