<?xml version="1.0" encoding="UTF-8"?>
<svg width="52px" height="52px" viewBox="0 0 52 52" version="1.1" xmlns="http://www.w3.org/2000/svg" xmlns:xlink="http://www.w3.org/1999/xlink">
    <!-- Generator: Sketch 42 (36781) - http://www.bohemiancoding.com/sketch -->
    <title>icon_custom_safety</title>
    <desc>Created with Sketch.</desc>
    <defs></defs>
    <g id="Page-1" stroke="none" stroke-width="1" fill="none" fill-rule="evenodd">
        <g id="icon_custom_safety" fill="#0372BC">
            <path d="M25.545,14.254 C25.625,14.249 25.717,14.246 25.839,14.246 C25.961,14.246 26.053,14.249 26.133,14.254 C26.344,14.259 26.553,14.269 26.76,14.286 L27.639,0.26 C27.044,0.219 26.444,0.197 25.839,0.197 C25.234,0.197 24.634,0.219 24.039,0.26 L24.917,14.286 C25.125,14.269 25.334,14.259 25.545,14.254" id="Fill-26"></path>
            <path d="M25.839,51.764 C26.444,51.764 27.044,51.742 27.639,51.701 L26.76,37.676 C26.553,37.692 26.344,37.702 26.133,37.708 C26.053,37.712 25.961,37.715 25.839,37.715 C25.717,37.715 25.625,37.712 25.545,37.708 C25.334,37.702 25.125,37.692 24.917,37.676 L24.039,51.701 C24.634,51.742 25.234,51.764 25.839,51.764" id="Fill-27"></path>
            <path d="M51.569,24.191 L37.544,25.069 C37.56,25.277 37.571,25.486 37.576,25.697 C37.581,25.777 37.583,25.869 37.583,25.991 C37.583,26.113 37.581,26.204 37.576,26.285 C37.571,26.495 37.56,26.704 37.544,26.912 L51.569,27.79 C51.61,27.196 51.633,26.596 51.633,25.991 C51.633,25.385 51.61,24.785 51.569,24.191" id="Fill-28"></path>
            <path d="M14.99,21.488 C16.18,18.624 18.472,16.332 21.336,15.142 L17.411,1.617 C9.949,4.198 4.036,10.097 1.456,17.56 L14.99,21.488" id="Fill-29"></path>
            <path d="M17.408,1.608 L17.411,1.617 C17.561,1.565 17.708,1.506 17.86,1.457 C17.708,1.506 17.558,1.556 17.408,1.608" id="Fill-30"></path>
            <path d="M33.818,1.457 C33.97,1.506 34.117,1.565 34.267,1.617 L34.27,1.608 C34.12,1.556 33.969,1.506 33.818,1.457" id="Fill-31"></path>
            <path d="M34.267,1.617 L30.342,15.142 C33.206,16.332 35.497,18.623 36.688,21.488 L50.222,17.56 C47.642,10.097 41.729,4.198 34.267,1.617" id="Fill-32"></path>
            <path d="M14.99,30.493 L1.461,34.42 C4.123,42.119 10.326,48.163 18.125,50.605 C18.131,50.601 18.136,50.595 18.142,50.591 C17.897,50.514 17.651,50.437 17.408,50.353 L21.331,36.837 C18.469,35.646 16.18,33.356 14.99,30.493" id="Fill-33"></path>
            <path d="M36.688,30.493 C35.498,33.356 33.209,35.646 30.347,36.837 L34.27,50.353 C33.814,50.511 33.35,50.651 32.883,50.784 C32.889,50.789 32.896,50.794 32.902,50.799 C41.006,48.496 47.481,42.332 50.217,34.42 L36.688,30.493" id="Fill-34"></path>
            <path d="M14.102,26.285 C14.097,26.204 14.094,26.112 14.094,25.991 C14.094,25.869 14.097,25.777 14.102,25.697 C14.107,25.486 14.118,25.277 14.134,25.069 L0.109,24.191 C0.068,24.785 0.045,25.385 0.045,25.991 C0.045,26.596 0.068,27.196 0.109,27.79 L14.134,26.912 C14.118,26.704 14.107,26.495 14.102,26.285" id="Fill-35"></path>
        </g>
    </g>
</svg>