<?xml version="1.0" encoding="UTF-8"?>
<svg width="62px" height="62px" viewBox="0 0 62 62" version="1.1" xmlns="http://www.w3.org/2000/svg" xmlns:xlink="http://www.w3.org/1999/xlink">
    <!-- Generator: Sketch 42 (36781) - http://www.bohemiancoding.com/sketch -->
    <title>icon_custom_compass</title>
    <desc>Created with Sketch.</desc>
    <defs></defs>
    <g id="Page-1" stroke="none" stroke-width="1" fill="none" fill-rule="evenodd">
        <g id="icon_custom_compass" transform="translate(-1.000000, -1.000000)" fill="#0372BC">
            <polyline id="Fill-48" points="42.922 25.376 46.127 17.451 38.263 20.729 39.258 24.376 42.922 25.376"></polyline>
            <polyline id="Fill-49" points="24.039 24.376 25.034 20.729 17.17 17.451 20.375 25.376 24.039 24.376"></polyline>
            <polyline id="Fill-50" points="20.375 38.085 17.17 46.01 25.034 42.731 24.039 39.085 20.375 38.085"></polyline>
            <polyline id="Fill-51" points="39.258 39.085 38.263 42.731 46.127 46.01 42.922 38.085 39.258 39.085"></polyline>
            <path d="M52.103,27.357 L56.17,28.175 C54.601,17.445 46.096,8.939 35.368,7.367 L36.185,11.434 C44.123,13.153 50.386,19.418 52.103,27.357" id="Fill-52"></path>
            <path d="M27.374,11.434 L28.191,7.367 C17.462,8.939 8.957,17.445 7.388,28.175 L11.456,27.357 C13.173,19.418 19.436,13.153 27.374,11.434" id="Fill-53"></path>
            <path d="M11.456,36.157 L7.388,35.339 C8.957,46.069 17.462,54.575 28.191,56.147 L27.374,52.08 C19.436,50.361 13.173,44.096 11.456,36.157" id="Fill-54"></path>
            <path d="M52.103,36.157 C50.386,44.096 44.123,50.361 36.185,52.08 L35.368,56.147 C46.096,54.575 54.601,46.069 56.17,35.339 L52.103,36.157" id="Fill-55"></path>
            <path d="M31.779,28.913 C33.35,28.913 34.623,30.186 34.623,31.757 C34.623,33.328 33.35,34.601 31.779,34.601 C30.209,34.601 28.936,33.328 28.936,31.757 C28.936,30.186 30.209,28.913 31.779,28.913 Z M31.779,62.597 L36.935,36.911 L62.58,31.757 L36.935,26.603 L31.779,0.917 L26.624,26.603 L0.979,31.757 L26.624,36.911 L31.779,62.597 L31.779,62.597 Z" id="Fill-56"></path>
        </g>
    </g>
</svg>