<?xml version="1.0" encoding="UTF-8"?>
<svg width="74px" height="29px" viewBox="0 0 74 29" version="1.1" xmlns="http://www.w3.org/2000/svg" xmlns:xlink="http://www.w3.org/1999/xlink">
    <!-- Generator: Sketch 42 (36781) - http://www.bohemiancoding.com/sketch -->
    <title>icon_custom_my</title>
    <desc>Created with Sketch.</desc>
    <defs>
        <polygon id="path-1" points="0.06 28.669178 0.06 0.126 73.559 0.126 73.559 28.669178 0.06 28.669178"></polygon>
    </defs>
    <g id="Page-1" stroke="none" stroke-width="1" fill="none" fill-rule="evenodd">
        <g id="icon_custom_my">
            <path d="M58.14,12.838 C56.271,11.201 53.87,10.299 51.385,10.299 L19.812,10.299 L16.156,14.788 L60.367,14.788 L58.14,12.838" id="Fill-39" fill="#0372BC"></path>
            <mask id="mask-2" fill="white">
                <use xlink:href="#path-1"></use>
            </mask>
            <g id="Clip-41"></g>
            <path d="M53.295,7.782 L51.068,5.832 C49.199,4.195 46.798,3.293 44.314,3.293 L33.511,3.293 C31.255,3.284 29.062,2.552 27.254,1.203 L26.956,0.982 L25.809,0.126 L22.769,0.126 L24.885,3.279 L24.917,3.293 L21.261,7.782 L53.295,7.782" id="Fill-40" fill="#0372BC" mask="url(#mask-2)"></path>
            <path d="M4.671,21.293 L4.59,21.293 C2.342,23.067 0.767,24.918 0,25.9 C1.339,27.543 3.377,28.594 5.661,28.594 C8.851,28.594 11.555,26.545 12.549,23.695 C13.544,26.545 16.248,28.594 19.438,28.594 C22.627,28.594 25.331,26.545 26.325,23.694 C27.319,26.545 30.024,28.594 33.213,28.594 C36.403,28.594 39.107,26.545 40.101,23.694 C40.952,26.132 43.058,27.973 45.643,28.457 C45.643,28.458 45.639,28.468 45.639,28.468 C45.67,28.473 45.702,28.474 45.734,28.479 C45.844,28.499 45.957,28.506 46.069,28.52 C50.606,29.186 55.574,27.499 59.039,25.895 C59.297,25.776 59.557,25.653 59.817,25.525 C60.324,25.277 60.78,25.042 61.197,24.818 C61.317,24.753 61.437,24.689 61.557,24.622 C62.742,23.971 63.46,23.5 63.46,23.5 L73.559,17.159 L16.678,17.159 C12.266,17.159 8.074,18.667 4.671,21.293" id="Fill-42" fill="#0372BC" mask="url(#mask-2)"></path>
        </g>
    </g>
</svg>