<?xml version="1.0" encoding="UTF-8"?>
<svg width="46px" height="59px" viewBox="0 0 46 59" version="1.1" xmlns="http://www.w3.org/2000/svg" xmlns:xlink="http://www.w3.org/1999/xlink">
    <!-- Generator: Sketch 42 (36781) - http://www.bohemiancoding.com/sketch -->
    <title>icon_custom_anchor_01</title>
    <desc>Created with Sketch.</desc>
    <defs></defs>
    <g id="Page-1" stroke="none" stroke-width="1" fill="none" fill-rule="evenodd">
        <g id="icon_custom_anchor_01" fill="#0372BC">
            <path d="M5.44149982,47.284 L5.44249982,47.282 C9.81349982,51.147 15.9974998,52.065 22.5914998,58.372 C29.1844998,52.065 37.0314998,50.435 40.0674998,47.754 C44.9584998,44.659 45.8694998,38.334 44.9664998,35.346 C44.9524998,35.295 44.9374998,35.243 44.9204998,35.194 C44.9184998,35.187 44.9154998,35.18 44.9124998,35.172 C44.8834998,35.088 44.8514998,35.007 44.8184998,34.931 C44.8164998,34.925 44.8144998,34.919 44.8114998,34.913 L44.8114998,34.914 C44.5024998,34.216 44.0634998,33.835 44.0634998,33.835 C44.0634998,33.835 43.7984998,34.801 43.2764998,36.025 C42.1694998,38.318 39.6054998,41.825 33.8624998,43.611 C31.3364998,44.404 28.7264998,45.038 26.5074998,46.231 C27.3434998,44.433 28.5464998,41.304 28.2584998,38.657 L26.1404998,23.003 L22.5914998,23.536 L19.0264998,23 L16.9164998,38.579 L17.0084998,38.657 C16.7174998,41.33 17.9474998,44.496 18.7834998,46.285 C15.8464998,44.672 12.1984998,44.073 8.97349982,42.785 C3.25849982,40.489 1.37449982,34.701 1.14549982,33.926 C1.14149982,33.913 1.13549982,33.893 1.13249982,33.884 C1.12649982,33.862 1.11949982,33.835 1.11949982,33.835 C1.11949982,33.835 0.684499818,34.224 0.376499818,34.922 L0.370499818,34.913 C0.351499818,34.956 0.340499818,35.005 0.323499818,35.048 C0.285499818,35.144 0.251499818,35.241 0.220499818,35.347 C-0.683500182,38.335 1.21849982,43.864 5.44149982,47.284" id="Fill-46"></path>
            <path d="M22.114,3.231 C23.188,3.231 24.059,4.102 24.059,5.176 C24.059,6.251 23.188,7.122 22.114,7.122 C21.039,7.122 20.168,6.251 20.168,5.176 C20.168,4.102 21.039,3.231 22.114,3.231 Z M36.227,18.413 L36.227,16.29 L24.842,16.29 L23.989,9.989 C25.918,9.236 27.29,7.371 27.29,5.176 C27.29,2.317 24.972,0 22.114,0 C19.255,0 16.937,2.317 16.937,5.176 C16.937,7.366 18.302,9.228 20.223,9.984 L19.369,16.29 L8,16.29 L8,18.413 L22.114,20.535 L36.227,18.413 L36.227,18.413 Z" id="Fill-47"></path>
        </g>
    </g>
</svg>