<?xml version="1.0" encoding="UTF-8"?>
<svg width="48px" height="47px" viewBox="0 0 48 47" version="1.1" xmlns="http://www.w3.org/2000/svg" xmlns:xlink="http://www.w3.org/1999/xlink">
    <!-- Generator: Sketch 42 (36781) - http://www.bohemiancoding.com/sketch -->
    <title>icon_custom_island</title>
    <desc>Created with Sketch.</desc>
    <defs></defs>
    <g id="Page-1" stroke="none" stroke-width="1" fill="none" fill-rule="evenodd">
        <g id="icon_custom_island" fill="#0372BC">
            <path d="M32.512,1.025 C29.264,2.313 26.756,4.753 25.153,7.836 C24.121,5.744 22.59,3.973 20.57,2.738 C16.626,0.328 11.717,0.47 7.287,2.65 L15.663,7.77 C14.891,7.732 14.112,7.755 13.328,7.858 C8.268,8.528 4.156,12.094 1.874,17.096 L16.059,15.219 C15.74,15.455 15.423,15.696 15.13,15.973 C12.169,18.768 11.211,23.033 12.127,27.394 L25.477,14.791 C25.547,14.968 25.631,15.185 25.734,15.472 C25.862,15.828 26.011,16.265 26.165,16.772 C26.323,17.276 26.48,17.854 26.64,18.482 C26.794,19.114 26.95,19.798 27.084,20.525 C27.219,21.252 27.341,22.019 27.434,22.814 C27.457,23.012 27.48,23.211 27.504,23.413 C27.522,23.614 27.54,23.817 27.558,24.021 C27.6,24.428 27.616,24.842 27.644,25.255 C27.663,25.67 27.675,26.088 27.684,26.504 C27.68,26.923 27.694,27.339 27.676,27.757 C27.662,28.173 27.656,28.587 27.623,28.999 C27.61,29.205 27.597,29.409 27.584,29.614 C27.568,29.817 27.545,30.02 27.526,30.222 C27.506,30.423 27.486,30.623 27.466,30.822 C27.439,31.02 27.413,31.217 27.386,31.413 C27.359,31.607 27.333,31.801 27.306,31.993 C27.273,32.184 27.24,32.374 27.208,32.562 C27.176,32.749 27.144,32.934 27.112,33.118 C27.073,33.3 27.035,33.48 26.997,33.659 C26.923,34.016 26.851,34.362 26.76,34.697 C26.712,34.88 26.669,35.059 26.624,35.236 C26.74,35.273 26.855,35.309 26.97,35.347 C28.508,35.851 29.942,36.404 31.266,36.908 C32.564,37.4 33.761,37.845 34.888,38.16 C34.892,38.04 34.896,37.92 34.898,37.796 C34.897,37.417 34.896,37.022 34.896,36.613 C34.899,36.206 34.868,35.783 34.854,35.352 C34.842,34.922 34.807,34.479 34.769,34.029 C34.751,33.805 34.732,33.578 34.714,33.349 C34.687,33.121 34.66,32.89 34.633,32.658 C34.606,32.427 34.578,32.193 34.55,31.959 C34.515,31.725 34.479,31.49 34.444,31.253 C34.407,31.017 34.37,30.78 34.333,30.542 C34.288,30.305 34.243,30.068 34.198,29.829 C34.151,29.591 34.108,29.352 34.058,29.114 C34.004,28.876 33.95,28.638 33.896,28.4 C33.795,27.923 33.665,27.451 33.542,26.98 C33.423,26.508 33.272,26.044 33.139,25.581 C32.992,25.121 32.844,24.665 32.688,24.217 C32.525,23.77 32.374,23.327 32.199,22.898 C32.114,22.683 32.03,22.469 31.946,22.257 C31.857,22.048 31.769,21.839 31.681,21.633 C31.33,20.81 30.96,20.031 30.591,19.305 C30.224,18.579 29.85,17.909 29.496,17.298 C29.136,16.69 28.798,16.141 28.479,15.664 C28.252,15.319 28.046,15.023 27.854,14.753 L46.018,24.03 C45.365,18.224 42.321,13.152 37.3,10.588 C35.659,9.749 33.924,9.245 32.155,9.039 L46.89,3.195 C42.535,0.13 37.256,-0.857 32.512,1.025" id="Fill-44"></path>
            <path d="M31.927,46.644 C33.599,46.838 35.293,46.78 36.835,46.5 C37.219,46.414 37.596,46.334 37.962,46.242 C38.147,46.203 38.324,46.143 38.5,46.084 C38.675,46.026 38.849,45.967 39.019,45.906 C39.711,45.689 40.329,45.38 40.917,45.094 C41.063,45.02 41.211,44.955 41.349,44.876 C41.484,44.794 41.618,44.712 41.751,44.631 C42.015,44.471 42.269,44.312 42.513,44.154 C42.635,44.073 42.759,44.003 42.872,43.918 C42.983,43.831 43.093,43.747 43.202,43.663 C43.418,43.497 43.624,43.331 43.823,43.172 C44.02,43.012 44.212,42.858 44.385,42.697 C44.555,42.533 44.719,42.375 44.877,42.223 C45.183,41.91 45.464,41.63 45.708,41.369 C46.174,40.816 46.517,40.368 46.743,40.057 C46.858,39.903 46.94,39.78 46.997,39.698 C47.053,39.616 47.082,39.573 47.082,39.573 L46.987,39.438 C46.987,39.438 46.936,39.448 46.837,39.467 C46.739,39.487 46.591,39.514 46.406,39.557 C46.031,39.636 45.499,39.772 44.839,39.942 C44.508,40.014 44.142,40.094 43.743,40.18 C43.549,40.228 43.348,40.277 43.139,40.327 C42.932,40.378 42.708,40.4 42.487,40.446 C42.267,40.487 42.04,40.53 41.806,40.574 C41.691,40.597 41.574,40.62 41.456,40.643 C41.338,40.666 41.216,40.675 41.095,40.692 C40.851,40.721 40.605,40.754 40.356,40.79 C40.233,40.807 40.107,40.825 39.981,40.843 C39.855,40.86 39.726,40.861 39.597,40.871 C39.34,40.885 39.082,40.906 38.821,40.927 L38.625,40.942 C38.56,40.945 38.494,40.942 38.428,40.943 C38.297,40.942 38.164,40.942 38.031,40.941 C37.898,40.941 37.766,40.941 37.633,40.945 C37.5,40.949 37.367,40.952 37.233,40.935 C36.965,40.911 36.697,40.899 36.427,40.882 C35.347,40.771 34.256,40.568 33.106,40.245 C31.957,39.929 30.735,39.474 29.409,38.972 C28.085,38.467 26.651,37.914 25.113,37.41 C23.575,36.908 21.937,36.452 20.235,36.207 C18.538,35.956 16.813,35.9 15.171,36.033 C14.761,36.08 14.357,36.139 13.958,36.192 C13.759,36.221 13.56,36.242 13.365,36.28 C13.172,36.322 12.979,36.365 12.787,36.407 C12.405,36.49 12.029,36.578 11.66,36.667 C11.298,36.777 10.942,36.89 10.594,37.005 C10.42,37.062 10.248,37.119 10.077,37.175 C9.991,37.204 9.906,37.23 9.822,37.261 L9.577,37.364 C9.252,37.502 8.932,37.633 8.622,37.77 C7.992,38.023 7.428,38.348 6.882,38.64 C6.612,38.792 6.345,38.933 6.092,39.083 C5.846,39.244 5.606,39.401 5.371,39.555 C4.908,39.869 4.469,40.15 4.075,40.46 C3.679,40.766 3.319,41.06 2.991,41.335 C2.661,41.605 2.36,41.855 2.121,42.103 C1.624,42.585 1.244,42.982 0.987,43.256 C0.732,43.535 0.596,43.683 0.596,43.683 L0.677,43.828 C0.677,43.828 0.875,43.789 1.245,43.717 C1.613,43.64 2.149,43.522 2.82,43.35 C3.494,43.175 4.297,43.044 5.178,42.827 C5.396,42.771 5.635,42.737 5.875,42.695 C6.113,42.65 6.358,42.605 6.609,42.558 C6.857,42.509 7.111,42.459 7.371,42.408 C7.631,42.37 7.897,42.332 8.169,42.293 C8.71,42.218 9.262,42.111 9.837,42.075 C10.123,42.051 10.41,42.017 10.701,41.988 L10.92,41.965 L11.141,41.956 C11.287,41.951 11.435,41.945 11.584,41.939 C11.881,41.929 12.179,41.911 12.478,41.896 C12.779,41.905 13.081,41.912 13.384,41.913 C13.535,41.914 13.687,41.916 13.839,41.917 C13.991,41.924 14.143,41.94 14.296,41.95 C14.599,41.972 14.905,41.993 15.213,42.015 C16.439,42.162 17.674,42.383 18.932,42.715 C19.247,42.806 19.563,42.9 19.881,42.983 C20.201,43.087 20.523,43.191 20.845,43.295 C21.497,43.51 22.151,43.744 22.831,43.995 C24.183,44.492 25.599,45.052 27.117,45.541 C28.631,46.029 30.249,46.458 31.927,46.644" id="Fill-45"></path>
        </g>
    </g>
</svg>