<?xml version="1.0" encoding="UTF-8"?>
<svg width="43px" height="58px" viewBox="0 0 43 58" version="1.1" xmlns="http://www.w3.org/2000/svg" xmlns:xlink="http://www.w3.org/1999/xlink">
    <!-- Generator: Sketch 42 (36781) - http://www.bohemiancoding.com/sketch -->
    <title>icon_custom_anchor_02</title>
    <desc>Created with Sketch.</desc>
    <defs></defs>
    <g id="Page-1" stroke="none" stroke-width="1" fill="none" fill-rule="evenodd">
        <g id="icon_custom_anchor_02" fill="#0372BC">
            <path d="M18.302,7.977 C18.302,6.015 19.892,4.425 21.853,4.425 C23.815,4.425 25.405,6.015 25.405,7.977 C25.405,9.938 23.815,11.528 21.853,11.528 C19.892,11.528 18.302,9.938 18.302,7.977 Z M30.7,23.424 L30.7,21.165 L25.034,21.165 L24.092,14.696 C26.907,13.758 28.939,11.107 28.939,7.977 C28.939,4.063 25.767,0.89 21.853,0.89 C17.939,0.89 14.767,4.063 14.767,7.977 C14.767,11.087 16.774,13.723 19.561,14.677 L18.617,21.165 L13.006,21.165 L13.006,23.424 L21.853,25.682 L30.7,23.424 L30.7,23.424 Z" id="Fill-58"></path>
            <path d="M21.853,57.646 C33.455,57.646 42.86,52.073 42.86,45.199 C42.86,42.931 41.833,40.807 40.045,38.976 C39.834,39.127 39.592,39.235 39.328,39.285 C39.336,39.416 39.351,39.546 39.351,39.678 C39.351,44.84 33.325,49.142 25.323,50.123 L25.242,50.097 C25.351,49.916 25.455,49.736 25.555,49.556 C25.563,49.542 25.571,49.528 25.579,49.513 C27.896,45.32 27.867,41.25 27.506,38.159 L27.063,35.117 L27.063,35.116 L25.883,27.006 L21.853,28.035 L17.769,26.992 L16.587,35.116 L16.587,35.117 L16.144,38.159 C15.783,41.25 15.754,45.32 18.071,49.513 C18.079,49.528 18.088,49.542 18.095,49.556 C18.196,49.736 18.299,49.916 18.408,50.097 L18.34,50.119 C10.36,49.128 4.355,44.83 4.355,39.678 C4.355,39.543 4.371,39.411 4.379,39.277 C4.12,39.222 3.885,39.108 3.68,38.955 C1.88,40.791 0.846,42.923 0.846,45.199 C0.846,52.073 10.251,57.646 21.853,57.646" id="Fill-59"></path>
        </g>
    </g>
</svg>