<?xml version="1.0" encoding="UTF-8"?>
<svg width="45px" height="54px" viewBox="0 0 45 54" version="1.1" xmlns="http://www.w3.org/2000/svg" xmlns:xlink="http://www.w3.org/1999/xlink">
    <!-- Generator: Sketch 42 (36781) - http://www.bohemiancoding.com/sketch -->
    <title>icon_custom_galley</title>
    <desc>Created with Sketch.</desc>
    <defs></defs>
    <g id="Page-1" stroke="none" stroke-width="1" fill="none" fill-rule="evenodd">
        <g id="icon_custom_galley" fill="#0372BC">
            <path d="M7.1381462,52.247 C8.4961462,53.285 11.0171462,53.13 12.6501462,50.996 C12.7431462,50.874 12.8071462,50.74 12.8871462,50.612 L12.9221462,50.639 L13.1631462,50.167 C13.1661462,50.162 13.1691462,50.156 13.1721462,50.15 L21.2661462,34.288 L19.1651462,31 L7.3831462,46.402 L7.4061462,46.42 C7.3081462,46.533 7.2041462,46.636 7.1111462,46.758 C5.4781462,48.893 5.7811462,51.208 7.1381462,52.247" id="Fill-6"></path>
            <path d="M13.368,21.386 L15.155,22.225 C17.235,23.201 18.768,25.229 20.077,27.373 L35.303,51.282 C37.049,53.564 39.676,53.664 41.149,52.538 C42.621,51.411 43.107,48.928 41.361,46.647 C41.138,46.355 40.895,46.091 40.639,45.851 L25.759,29.472 C25.884,29.425 26.009,29.37 26.136,29.337 L30.21,28.254 L40.961,13.892 C45.078,8.51 44.409,5.091 43.039,0 L23.019,26.457 L22.304,25.669 C20.577,23.845 19.112,21.765 18.713,19.502 L18.371,17.558 C17.875,14.742 16.999,12.429 15.09,9.933 C11.782,5.61 6.816,0.578 6.816,0.578 L6.208,1.043 L7.101,2.223 C9.114,4.886 12.523,8.731 14.113,11.458 C15.104,13.157 14.793,13.263 14.723,13.75 C14.692,13.851 14.652,13.936 14.602,13.992 C14.518,14.056 14.423,14.097 14.321,14.12 C14.304,14.121 14.287,14.123 14.269,14.122 L14.272,14.129 C13.732,14.212 13.383,14.298 12.465,13.296 L3.657,2.995 L3.408,3.186 L3.125,3.402 L10.798,14.571 C11.525,15.719 11.351,16.033 11.13,16.533 L11.124,16.529 C11.12,16.546 11.114,16.562 11.109,16.578 C11.06,16.671 10.996,16.751 10.912,16.816 C10.844,16.849 10.752,16.866 10.646,16.869 C10.158,16.81 9.974,17.082 8.594,15.682 C6.377,13.434 3.557,9.138 1.514,6.499 L0.608,5.329 L0,5.793 C0,5.793 3.173,11.398 6.866,16.225 C8.776,18.721 10.78,20.171 13.368,21.386" id="Fill-7"></path>
        </g>
    </g>
</svg>