<?xml version="1.0" encoding="UTF-8"?>
<svg width="18px" height="42px" viewBox="0 0 18 42" version="1.1" xmlns="http://www.w3.org/2000/svg" xmlns:xlink="http://www.w3.org/1999/xlink">
    <!-- Generator: Sketch 42 (36781) - http://www.bohemiancoding.com/sketch -->
    <title>deck_ep_03</title>
    <desc>Created with Sketch.</desc>
    <defs></defs>
    <g id="Page-1" stroke="none" stroke-width="1" fill="none" fill-rule="evenodd">
        <g id="deck_ep_03">
            <g id="Group" fill-rule="nonzero" fill="#0070BF">
                <path d="M1,41 L17,41 L17,1 L1,1 L1,41 Z M0,0 L18,0 L18,42 L0,42 L0,0 Z" id="Rectangle-7-Copy"></path>
            </g>
            <rect id="Rectangle-8-Copy-3" fill="#0070BF" x="1" y="31" width="16" height="2"></rect>
            <rect id="Rectangle-8-Copy-4" fill="#0070BF" x="1" y="35" width="16" height="2"></rect>
            <path d="M9.25272597,17.4125402 L9.02098876,17.8570362 L8.7904646,17.4148669 C5.55130959,17.3142216 4.54986154,14.505956 4.54986154,14.505956 C4.54986154,14.505956 4.54996708,14.5049906 4.55018281,14.5031254 L4,14.6209939 L4.60379871,12.8478239 L5.92343592,14.2089261 L5.47601678,14.3047791 C6.16500083,15.7372308 8.26553711,15.8898856 8.53286359,15.9035959 L8.53286359,11.0272749 L7.35364025,11.0272749 C7.25787121,11.1288532 7.11869729,11.1927794 6.96379541,11.1927794 C6.67493795,11.1927794 6.4407727,10.9704828 6.4407727,10.696266 C6.4407727,10.4220493 6.67493795,10.1997527 6.96379541,10.1997527 C7.11869729,10.1997527 7.25787121,10.2636789 7.35364025,10.3652572 L8.53286359,10.3652572 L8.53286359,9.79956308 C7.9258634,9.61341317 7.48681814,9.07256605 7.48681814,8.4343719 C7.48681814,7.64219017 8.16329552,7 8.99777267,7 C9.83224981,7 10.5087272,7.64219017 10.5087272,8.4343719 C10.5087272,9.07256605 10.0696819,9.61341317 9.46268175,9.79956308 L9.46268175,10.3652572 L10.7000187,10.3652572 C10.7957878,10.2636789 10.9349617,10.1997527 11.0898636,10.1997527 C11.378721,10.1997527 11.6128863,10.4220493 11.6128863,10.696266 C11.6128863,10.9704828 11.378721,11.1927794 11.0898636,11.1927794 C10.9349617,11.1927794 10.7957878,11.1288532 10.7000187,11.0272749 L9.46268175,11.0272749 L9.46268175,15.9027387 C9.78759868,15.884128 11.8268805,15.7120697 12.5037628,14.3047791 L12.0563434,14.2089261 L13.3759806,12.8478239 L13.9797793,14.6209939 L13.4295965,14.5031254 C13.4298122,14.5049906 13.4299178,14.505956 13.4299178,14.505956 C13.4299178,14.505956 12.441556,17.2775251 9.25272597,17.4125402 Z M8.99777267,9.206726 C9.44710651,9.206726 9.81136357,8.86093128 9.81136357,8.4343719 C9.81136357,8.00781251 9.44710651,7.6620178 8.99777267,7.6620178 C8.54843883,7.6620178 8.18418176,8.00781251 8.18418176,8.4343719 C8.18418176,8.86093128 8.54843883,9.206726 8.99777267,9.206726 Z" id="Combined-Shape" fill="#0372BC" fill-rule="nonzero"></path>
        </g>
    </g>
</svg>