<?xml version="1.0" encoding="UTF-8"?>
<svg width="18px" height="42px" viewBox="0 0 18 42" version="1.1" xmlns="http://www.w3.org/2000/svg" xmlns:xlink="http://www.w3.org/1999/xlink">
    <!-- Generator: Sketch 42 (36781) - http://www.bohemiancoding.com/sketch -->
    <title>galley_ep_01</title>
    <desc>Created with Sketch.</desc>
    <defs></defs>
    <g id="Page-1" stroke="none" stroke-width="1" fill="none" fill-rule="evenodd">
        <g id="galley_ep_01">
            <g id="Group" fill-rule="nonzero" fill="#0070BF">
                <path d="M1,41 L17,41 L17,1 L1,1 L1,41 Z M0,0 L18,0 L18,42 L0,42 L0,0 Z" id="Rectangle-7-Copy"></path>
            </g>
            <g id="Group-10-Copy" transform="translate(3.000000, 8.000000)" fill="#0372BC">
                <path d="M2.05876192,9.10130314 L5.06958764,6.40163632 L5.72730848,6.93039319 L2.88150339,9.84542817 C2.88150339,9.84542817 2.49441086,10.2388275 2.13583646,9.80373905 C1.77726206,9.3686506 2.05876192,9.10130314 2.05876192,9.10130314 Z" id="Path-3"></path>
                <path d="M6.94480799,6.07906129 L12,1.00210877 C12,1.00210877 10.4322327,0.230596629 8.65491332,1.49678538 C6.87759396,2.76297413 5.76589844,4.56776645 5.76589844,4.56776645 C5.76589844,4.56776645 5.15068512,4.16811878 5.36827006,3.64960522 C5.585855,3.13109166 5.52880504,3.18845182 5.52880504,3.18845182 L1.90609161,0 L1.48665965,0.287558182 L4.29686198,3.06332774 L3.86751185,3.23548795 L1.0566128,0.718417122 L0.698124291,1.09725729 L3.21803577,3.78393722 L3.05213186,4.14252793 L0.307586169,1.4868201 L6.21724894e-15,1.90225278 L3.16905969,5.481822 C3.16905969,5.481822 3.90915176,5.08297154 4.26866487,5.28239677 C4.62817798,5.481822 6.93202093,7.31886197 7.59444801,8.11373274 C8.25687509,8.9086035 9.18127297,9.92837076 9.18127297,9.92837076 C9.18127297,9.92837076 9.74492821,10.1428236 10.0384978,9.82959488 C10.3320674,9.51636613 10.1632126,8.85048598 10.1632126,8.85048598 C10.1632126,8.85048598 8.01133895,7.34309754 7.00566948,6.13442839" id="Path-4"></path>
            </g>
        </g>
    </g>
</svg>